<svg xmlns="http://www.w3.org/2000/svg" viewBox="0 0 100 100" width="500" height="500" class="illustration"><defs><style>.cls-1{fill:#f8d366;}.cls-1,.cls-2{stroke:#221f20;}.cls-1,.cls-2,.cls-3{stroke-linejoin:bevel;}.cls-1,.cls-2,.cls-3,.cls-4,.cls-5{stroke-width:1.5px;}.cls-2{fill:#221f20;}.cls-3{fill:#0099f5;}.cls-3,.cls-4,.cls-5{stroke:#231f20;}.cls-4,.cls-6{fill:#fff;}.cls-4,.cls-5{stroke-miterlimit:10;}.cls-5{fill:#ffd44d;}</style></defs><g id="Layer_2" data-name="Layer 2"><polygon class="cls-1" points="24.18 55.19 24.47 83.85 48.7 92.85 48.41 64.61 24.18 55.19"></polygon><polygon class="cls-1" points="72.75 54.69 48.41 64.61 48.7 92.85 73.04 82.78 72.75 54.69"></polygon><polygon class="cls-2" points="24.18 55.19 48.2 44.84 72.75 54.69 48.41 64.61 24.18 55.19"></polygon><polygon class="cls-3" points="72.75 54.69 48.41 64.61 55.11 77.43 79.45 67.37 72.75 54.69"></polygon><polygon class="cls-3" points="24.18 55.19 17.69 69.1 41.92 78.1 48.41 64.61 24.18 55.19"></polygon><path class="cls-4" d="M49.12,18.13c0,5.79-.51,15.28-1.14,15.28s-1.13-9.49-1.13-15.28.51-5.69,1.13-5.69S49.12,12.34,49.12,18.13Z"></path><path class="cls-4" d="M46.85,64.31c0-5.8.51-15.29,1.13-15.29s1.14,9.49,1.14,15.29S48.61,70,48,70,46.85,70.1,46.85,64.31Z"></path><path class="cls-4" d="M71.07,42.36c-5.79,0-15.28-.51-15.28-1.14s9.49-1.14,15.28-1.14,5.69.51,5.69,1.14S76.86,42.36,71.07,42.36Z"></path><path class="cls-4" d="M24.9,40.08c5.79,0,15.28.51,15.28,1.14s-9.49,1.14-15.28,1.14-5.69-.51-5.69-1.14S19.1,40.08,24.9,40.08Z"></path><path class="cls-4" d="M32.46,24.09c4.1,4.09,10.45,11.16,10,11.61S35,29.79,30.85,25.7s-3.66-4.39-3.22-4.83S28.37,20,32.46,24.09Z"></path><path class="cls-4" d="M63.51,58.35c-4.1-4.1-10.45-11.17-10-11.61s7.52,5.9,11.61,10,3.67,4.38,3.22,4.83S67.6,62.44,63.51,58.35Z"></path><path class="cls-4" d="M65.11,25.7C61,29.79,54,36.14,53.5,35.7s5.91-7.52,10-11.61,4.38-3.67,4.82-3.22S69.21,21.6,65.11,25.7Z"></path><path class="cls-4" d="M30.85,56.74c4.1-4.1,11.17-10.45,11.62-10s-5.91,7.51-10,11.61S28.08,62,27.63,61.57,26.76,60.83,30.85,56.74Z"></path><path class="cls-5" d="M57.18,37.59A8.61,8.61,0,0,0,48.31,29,8.7,8.7,0,0,0,40,37.17a8.59,8.59,0,0,0,2.18,6.15,11.86,11.86,0,0,1,3.18,7.88v.67h6.48v-1a11.06,11.06,0,0,1,3.08-7.47A8.55,8.55,0,0,0,57.18,37.59Z"></path><path class="cls-6" d="M51.42,42.05c0,1.57-1.28,5.62-2.85,5.62s-2.85-4.05-2.85-5.62a2.85,2.85,0,0,1,5.7,0Z"></path><rect class="cls-5" x="42.5" y="49.86" width="12.14" height="5.61"></rect><rect class="cls-5" x="45.22" y="55.47" width="6.69" height="2.81"></rect></g></svg>