<svg xmlns="http://www.w3.org/2000/svg" viewBox="0 0 500 500" width="500" height="500" class="illustration"><title>26. Money Bag</title><g id="Layer_12" data-name="Layer 12"><path d="M205.44,85.71a12.21,12.21,0,0,0-5.61,2.61c-2.7,2.63-2.56,6.93-2.24,10.68,1.13,12.86,4.51,28.61,17,32.06,4,1.11,9.07,1,11.23,4.6,1.38,2.31.9,5.26,1.65,7.84,1.92,6.64,10.44,8.22,17.34,8.59l50.53,2.72c-32,17.18-73.3,11.41-103.48,31.57-10.82,7.23-19.41,17.36-26.59,28.21-16.62,25.12-26.15,54.27-33.09,83.58-4.27,18-7.65,36.61-5,54.92,4.15,29.08,23,54.14,44.92,73.71,7.73,6.91,16.69,13.61,27,14l-51.32-1c-5.72-.11-11.6-.26-16.89-2.45-6.8-2.81-11.85-8.69-15.79-14.91-14-22.13-16.51-49.46-17.29-75.64-.92-31.28.2-63.31,11.21-92.61,14.43-38.41,44.35-68.55,72.45-98.47,3.73-4,7.53-8.11,9.35-13.24,2.91-8.19.26-17.19-2.39-25.47q-6.87-21.39-13.73-42.8c-1.1-3.44-1.26-8.6,2.3-9.22a6.73,6.73,0,0,1,3.84.94,75.16,75.16,0,0,0,26.44,6.67c9.66.66,20.64-4.6,29.46-3.69,10.58,1.09,7.67,4.47-1.46,8.89S215.15,83.18,205.44,85.71Z" fill="#3fe2fd"></path><rect x="160.45" y="133.9" width="184.7" height="24.78" fill="#3fe2fd"></rect></g><g id="Layer_11" data-name="Layer 11"><path d="M86.81,334.56c0,2-.08,3.94-.08,5.89,0,.85,0,1.69,0,2.53s0,1.54,0,2.32v.14a239.94,239.94,0,0,0,6.73,51.65c7.71,31.72,33.64,53.89,63.05,53.89H338.09c30.86,0,57.73-22.17,66.85-55.16,15.57-56.37,9.07-117.73-17.87-168.4a142,142,0,0,0-21-29.35l-28.39-30.78a21.53,21.53,0,0,0-8.33-41.38h-8.1l1.38-4.23,1-3.11L350,65.4a7,7,0,0,0-4-9.73c-35.63-12.33-67.77-5.15-98.84,1.8-26.71,6-51.94,11.6-76.15,3.22a7,7,0,0,0-8.89,8.93l19.71,56.29h-6.71A21.52,21.52,0,0,0,167,167.33l-8.2,7.35C114.57,214.35,88.34,272.63,86.81,334.56ZM175.17,155a7.53,7.53,0,0,1,0-15.05H329.32a7.53,7.53,0,1,1,0,15.05Zm4.54-77.59c23.65,4.24,47.43-1.07,70.55-6.24,26.82-6,54.49-12.18,83.55-4.56l-22.95,46.22a7.14,7.14,0,0,0-.39.94l-4,12.18H275.8l6.19-16.5a7,7,0,0,0-13.11-4.91l-8,21.41H243.67a116.12,116.12,0,0,1-4.36-31.35,7,7,0,0,0-7-7h0a7,7,0,0,0-7,7,130.25,130.25,0,0,0,3.87,31.34H196.71ZM186.13,169h69.28a76.25,76.25,0,0,0,18,32.08,7,7,0,1,0,10.2-9.59A62.25,62.25,0,0,1,270.05,169h50.11l35.62,38.64a127.4,127.4,0,0,1,19,26.44c25.25,47.49,31.34,105.1,16.71,158C384,418.94,362.58,437,338.09,437H156.56c-22.93,0-43.26-17.77-49.45-43.2a226,226,0,0,1-6.33-48.56c0-.81,0-1.62,0-2.44s0-1.55,0-2.33c0-1.83,0-3.69.08-5.54,1.43-58.1,26-112.7,67.32-149.8Z" fill="#251ac7"></path><path d="M252.65,360.39a6.64,6.64,0,0,0-1.18-.11,7.08,7.08,0,0,0-1.13.1,22.83,22.83,0,0,1-21.57-22.77,7,7,0,0,0-14,0,36.85,36.85,0,0,0,29.7,36.11v15.57a7,7,0,0,0,14,0V373.76a36.81,36.81,0,0,0-6.9-73c-.24,0-.48,0-.72,0a22.81,22.81,0,1,1,24.35-22.75,7,7,0,0,0,14,0,36.87,36.87,0,0,0-30.73-36.3V226.27a7,7,0,0,0-14,0v15.88a36.81,36.81,0,0,0,7.92,72.75c.24,0,.48,0,.72,0a22.8,22.8,0,0,1-.46,45.53Z" fill="#251ac7"></path></g></svg>