<svg xmlns="http://www.w3.org/2000/svg" viewBox="0 0 500 500" width="500" height="500" class="illustration"><title>20. Planning</title><g id="Layer_4" data-name="Layer 4"><polygon points="76.95 109.13 397.93 132.78 397.93 365.91 423.27 365.91 423.27 109.13 76.95 109.13" fill="#3fe2fd"></polygon></g><g id="Layer_1" data-name="Layer 1"><path d="M446.81,61.58H53.19a7,7,0,0,0-7,7v37.17a7,7,0,0,0,7,7H65.62V367.92a7,7,0,0,0,7,7H242.26v60.25a7,7,0,1,0,14,0V374.92H427.38a7,7,0,0,0,7-7V112.75h12.43a7,7,0,0,0,7-7V68.58A7,7,0,0,0,446.81,61.58Zm-7,37.17H60.19V75.58H439.81ZM79.62,360.92V112.75H420.38V360.92Z" fill="#251ac7"></path><path d="M342.51,160.38a7,7,0,1,0-9.67,10.12l13.32,12.72H280.35a41.52,41.52,0,0,0-41.47,41.47V252a27.5,27.5,0,0,1-27.47,27.47H168.17a7,7,0,1,0,0,14h43.24A41.51,41.51,0,0,0,252.88,252V224.69a27.5,27.5,0,0,1,27.47-27.47h64.08L331.6,210a7,7,0,0,0,9.9,9.9L367.4,194a7,7,0,0,0-.12-10Z" fill="#251ac7"></path><path d="M167.21,199.81l11.31-11.31,11.31,11.31a7,7,0,1,0,9.9-9.9L188.42,178.6,204,163.07a7,7,0,1,0-9.89-9.9L178.52,168.7,163,153.17a7,7,0,0,0-9.9,9.9l15.53,15.53-11.31,11.31a7,7,0,0,0,9.9,9.9Z" fill="#251ac7"></path><path d="M341.87,268.89l-15.53,15.53-15.53-15.53a7,7,0,0,0-9.9,9.9l15.53,15.53-11.31,11.31a7,7,0,0,0,9.9,9.9l11.31-11.31,11.31,11.31a7,7,0,1,0,9.9-9.9l-11.31-11.31,15.53-15.53a7,7,0,0,0-9.9-9.9Z" fill="#251ac7"></path><path d="M284.74,443.86H217.17a7,7,0,1,1,0-14h67.57a7,7,0,0,1,0,14Z" fill="#251ac7"></path></g></svg>